# xmcd CD database file generated by Grip 3.2.0
# 
# Track frame offsets:
#       150
#       18813
#       31732
#       49984
#       66136
#       88136
#       101621
#       114781
#       132284
#       145234
#       164974
#       184297
#       200975
#       215041
#       234334
#       250217
#       262529
#       284625
#       297663
#       311265
# 
# Disc length: 4379 seconds
# 
# Revision: 1
# Processed by: cddbd v1.5.1PL0 Copyright (c) Steve Scherf et al.
# Submitted via: Grip 3.2.0
# 
DISCID=31111914
DTITLE=Julio Iglesias - The 20 Greatest Songs
DYEAR=1989
DGENRE=Easy Listening
TTITLE0=Quiereme Mucho
TTITLE1=Quiero
TTITLE2=Cuidado Amor
TTITLE3=Abrazame
TTITLE4=Me Olvide De Vivir
TTITLE5=Por Un Poco De Tu Amor
TTITLE6=A Veces Tu, A Veces Yo
TTITLE7=Por El Amor De Una Mujer
TTITLE8=El Amor (La Tendresse)
TTITLE9=Sono Io
TTITLE10=Un Canto A Galicia
TTITLE11=A Flor De Piel
TTITLE12=Soy Un Truhan, Soy Un Senor
TTITLE13=Candilejas (Limelight)
TTITLE14=Cu-Cu-Rru-Cu-Cu Paloma
TTITLE15=Preguntale
TTITLE16=Manuela
TTITLE17=Jurame
TTITLE18=Caminito
TTITLE19=33 Anos
EXTD=
EXTT0=
EXTT1=
EXTT2=
EXTT3=
EXTT4=
EXTT5=
EXTT6=
EXTT7=
EXTT8=
EXTT9=
EXTT10=
EXTT11=
EXTT12=
EXTT13=
EXTT14=
EXTT15=
EXTT16=
EXTT17=
EXTT18=
EXTT19=
PLAYORDER=
